Infamous Assassinations is a 2007 British documentary television series about high-profile murders and attempted murders of public figures. It is currently being shown on Yesterday. Check here for full list
 
http://en.wikipedia.org/wiki/Infamous_Assassinations

On 9 October 1967 in Bolivia, Argentine communist guerilla leader Guevara was shot dead

MediaInfo
General
Format                           : AVI
Format/Info                      : Audio Video Interleave
File size                        : 282 MiB
Duration                         : 22mn 31s
Overall bit rate                 : 1 754 Kbps

Video
ID                               : 0
Format                           : MPEG-4 Visual
Format settings, BVOP            : Yes
Format settings, QPel            : No
Format settings, GMC             : No warppoints
Format settings, Matrix          : Default (H.263)
Codec ID                         : DIVX
Codec ID/Info                    : Project Mayo
Codec ID/Hint                    : DivX 4
Duration                         : 22mn 22s
Bit rate                         : 1 498 Kbps
Width                            : 512 pixels
Height                           : 384 pixels
Display aspect ratio             : 4:3
frame rate                       : 25.000 fps
Resolution                       : 24 bits
Scan type                        : Progressive
Bits/(Pixel*frame)               : 0.305
Stream size                      : 240 MiB (85%)

Audio
Format                           : ADPCM
Codec ID                         : 11
Codec ID/Hint                    : Intel
Duration                         : 22mn 31s
Bit rate mode                    : Constant
Bit rate                         : 256 Kbps
Channel(s)                       : 2 channels
Sampling rate                    : 32.0 KHz
Resolution                       : 4 bits
Stream size                      : 41.2 MiB (15%)
Interleave, duration             : 40 ms (1.00 video frame)